<?xml version="1.0" encoding="UTF-8"?>
<svg width="800px" height="800px" viewBox="0 0 800 800" version="1.1" xmlns="http://www.w3.org/2000/svg" xmlns:xlink="http://www.w3.org/1999/xlink">
    <title>wallet-logo-eth_bnb</title>
    <defs>
        <path d="M148.75,197.2 C230.902357,197.2 297.5,170 297.5,127.075 C297.5,84.15 230.902357,0 148.75,0 C66.5976435,0 0,84.15 0,127.075 C0,170 66.5976435,197.2 148.75,197.2 Z" id="path-1"></path>
        <filter x="-14.7%" y="-14.7%" width="129.4%" height="129.4%" filterUnits="objectBoundingBox" id="filter-3">
            <feOffset dx="9" dy="-9" in="SourceAlpha" result="shadowOffsetOuter1"></feOffset>
            <feGaussianBlur stdDeviation="13" in="shadowOffsetOuter1" result="shadowBlurOuter1"></feGaussianBlur>
            <feColorMatrix values="0 0 0 0 0   0 0 0 0 0   0 0 0 0 0  0 0 0 0.5 0" type="matrix" in="shadowBlurOuter1" result="shadowMatrixOuter1"></feColorMatrix>
            <feMerge>
                <feMergeNode in="shadowMatrixOuter1"></feMergeNode>
                <feMergeNode in="SourceGraphic"></feMergeNode>
            </feMerge>
        </filter>
    </defs>
    <g id="wallet-logo-eth_bnb" stroke="none" stroke-width="1" fill="none" fill-rule="evenodd">
        <g id="Group" transform="translate(171.000000, -60.000000)">
            <g id="bunny" transform="translate(112.200000, 126.650000)">
                <g id="face">
                    <path d="M307.7,8.5 C320.374935,8.5 331.849935,13.6375325 340.156201,21.9437987 C348.462468,30.250065 353.6,41.725065 353.6,54.4 C353.6,56.0503382 353.513231,57.6803869 353.343732,59.2858029 L353.343732,59.2858029 L353.257023,60.0379769 L338.505342,155.502103 C367.068732,167.100029 390.706715,183.067243 406.772738,202.025707 C420.548473,218.281553 428.70257,236.726981 429.22336,256.387037 L429.22336,256.387037 L429.25,258.454754 L429.25,295.8 C429.25,329.603612 406.844835,359.765129 371.856895,381.765659 C335.098287,404.879591 284.290188,419.05 228.225,419.05 C172.760074,419.05 122.441512,405.180517 85.7775975,382.504337 C50.8033625,360.873203 28.1104617,331.184687 27.2266403,297.812974 L27.2266403,297.812974 L27.2,295.745246 L27.2,258.454754 L27.2266401,256.387037 C27.7474312,236.72694 35.9015602,218.281478 49.6773467,202.025608 C65.7489107,183.060646 89.3976283,167.088992 117.974221,155.490102 L117.974221,155.490102 L102.882293,60.7301251 C102.931973,59.3324271 102.909314,57.9287665 102.879902,56.5157771 C102.865284,55.813541 102.85,55.1084886 102.85,54.4 C102.85,41.725065 107.987532,30.250065 116.293799,21.9437987 C124.600065,13.6375325 136.075065,8.5 148.75,8.5 C161.424935,8.5 172.899935,13.6375325 181.206201,21.9437987 C189.512468,30.250065 194.65,41.725065 194.65,54.3998658 L194.65,54.3998658 L194.648698,136.87728 C205.572536,135.740842 216.788997,135.15 228.225,135.15 C239.661207,135.15 250.877864,135.740863 261.801887,136.877341 L261.801887,136.877341 L261.8,54.4 C261.8,41.725065 266.937532,30.250065 275.243799,21.9437987 C283.550065,13.6375325 295.025065,8.5 307.7,8.5 Z" id="Combined-Shape" stroke="#EC6998" stroke-width="17" fill="#FACFD8"></path>
                    <ellipse id="Oval" fill="#EC6998" cx="408.85" cy="275.4" rx="46.75" ry="31.45"></ellipse>
                    <ellipse id="Oval" fill="#EC6998" cx="46.75" cy="275.4" rx="46.75" ry="31.45"></ellipse>
                </g>
                <g id="mouth" transform="translate(79.900000, 230.350000)">
                    <mask id="mask-2" fill="white">
                        <use xlink:href="#path-1"></use>
                    </mask>
                    <use id="Oval" fill="#000000" xlink:href="#path-1"></use>
                    <ellipse id="Oval" fill="#FFFFFF" mask="url(#mask-2)" cx="149.175" cy="0.425" rx="9.775" ry="17.425"></ellipse>
                    <path d="M146.896205,205.7 C212.044442,205.7 281.70914,182.495 295.264412,160.1825 C308.819685,137.87 212.492901,116.45 147.344665,116.45 C82.1964278,116.45 -13.2334365,137.87 0.361117939,160.1825 C13.9556724,182.495 81.7479682,205.7 146.896205,205.7 Z" id="Oval" fill="#EC6998" mask="url(#mask-2)"></path>
                </g>
                <g id="eyes" transform="translate(121.769250, 193.831226)" fill="#000000">
                    <path d="M27.8205404,26.7367777 C44.2510117,26.7367777 59.5,28.1138624 59.5,22.95 C59.5,17.7861376 46.1804713,13.6 29.75,13.6 C13.3195287,13.6 0,17.7861376 0,22.95 C0,28.1138624 11.3900691,26.7367777 27.8205404,26.7367777 Z" id="Oval" transform="translate(29.750000, 20.251695) rotate(-27.000000) translate(-29.750000, -20.251695) "></path>
                    <path d="M180.37854,26.7367777 C196.809012,26.7367777 212.058,28.1138624 212.058,22.95 C212.058,17.7861376 198.738471,13.6 182.308,13.6 C165.877529,13.6 152.558,17.7861376 152.558,22.95 C152.558,28.1138624 163.948069,26.7367777 180.37854,26.7367777 Z" id="Oval" transform="translate(182.308000, 20.251695) scale(-1, 1) rotate(-27.000000) translate(-182.308000, -20.251695) "></path>
                </g>
            </g>
        </g>
        <g id="ethereum-eth-logo" filter="url(#filter-3)" transform="translate(69.000000, 271.000000)">
            <circle id="Oval" fill="#FFFFFF" cx="229.5" cy="229.5" r="229.5"></circle>
            <g transform="translate(127.372500, 63.686250)" fill-rule="nonzero" id="Path">
                <polygon fill="#343434" points="102.048289 0 99.8176822 7.57677374 99.8176822 227.417736 102.048289 229.643136 204.093974 169.323064"></polygon>
                <polygon fill="#8C8C8C" points="102.048289 0 0 169.323064 102.048289 229.643136 102.048289 122.938425"></polygon>
                <polygon fill="#3C3C3B" points="102.048289 248.963779 100.791132 250.496833 100.791132 328.807514 102.048289 332.477473 204.156442 188.67494"></polygon>
                <polygon fill="#8C8C8C" points="102.048289 332.477473 102.048289 248.963779 0 188.67494"></polygon>
                <polygon fill="#141414" points="102.048289 229.643136 204.093974 169.323064 102.048289 122.938425"></polygon>
                <polygon fill="#393939" points="0 169.323064 102.048289 229.643136 102.048289 122.938425"></polygon>
            </g>
        </g>
    </g>
</svg>