<?xml version="1.0" encoding="UTF-8"?>
<svg width="800px" height="800px" viewBox="0 0 800 800" version="1.1" xmlns="http://www.w3.org/2000/svg" xmlns:xlink="http://www.w3.org/1999/xlink">
    <title>wallet-logo-btcb_bnb</title>
    <defs>
        <path d="M148.75,197.2 C230.902357,197.2 297.5,170 297.5,127.075 C297.5,84.15 230.902357,0 148.75,0 C66.5976435,0 0,84.15 0,127.075 C0,170 66.5976435,197.2 148.75,197.2 Z" id="path-1"></path>
        <filter x="-14.7%" y="-14.7%" width="129.4%" height="129.4%" filterUnits="objectBoundingBox" id="filter-3">
            <feOffset dx="9" dy="-9" in="SourceAlpha" result="shadowOffsetOuter1"></feOffset>
            <feGaussianBlur stdDeviation="13" in="shadowOffsetOuter1" result="shadowBlurOuter1"></feGaussianBlur>
            <feColorMatrix values="0 0 0 0 0   0 0 0 0 0   0 0 0 0 0  0 0 0 0.5 0" type="matrix" in="shadowBlurOuter1" result="shadowMatrixOuter1"></feColorMatrix>
            <feMerge>
                <feMergeNode in="shadowMatrixOuter1"></feMergeNode>
                <feMergeNode in="SourceGraphic"></feMergeNode>
            </feMerge>
        </filter>
    </defs>
    <g id="wallet-logo-btcb_bnb" stroke="none" stroke-width="1" fill="none" fill-rule="evenodd">
        <g id="Group" transform="translate(171.000000, -60.000000)">
            <g id="bunny" transform="translate(112.200000, 126.650000)">
                <g id="face">
                    <path d="M307.7,8.5 C320.374935,8.5 331.849935,13.6375325 340.156201,21.9437987 C348.462468,30.250065 353.6,41.725065 353.6,54.4 C353.6,56.0503382 353.513231,57.6803869 353.343732,59.2858029 L353.343732,59.2858029 L353.257023,60.0379769 L338.505342,155.502103 C367.068732,167.100029 390.706715,183.067243 406.772738,202.025707 C420.548473,218.281553 428.70257,236.726981 429.22336,256.387037 L429.22336,256.387037 L429.25,258.454754 L429.25,295.8 C429.25,329.603612 406.844835,359.765129 371.856895,381.765659 C335.098287,404.879591 284.290188,419.05 228.225,419.05 C172.760074,419.05 122.441512,405.180517 85.7775975,382.504337 C50.8033625,360.873203 28.1104617,331.184687 27.2266403,297.812974 L27.2266403,297.812974 L27.2,295.745246 L27.2,258.454754 L27.2266401,256.387037 C27.7474312,236.72694 35.9015602,218.281478 49.6773467,202.025608 C65.7489107,183.060646 89.3976283,167.088992 117.974221,155.490102 L117.974221,155.490102 L102.882293,60.7301251 C102.931973,59.3324271 102.909314,57.9287665 102.879902,56.5157771 C102.865284,55.813541 102.85,55.1084886 102.85,54.4 C102.85,41.725065 107.987532,30.250065 116.293799,21.9437987 C124.600065,13.6375325 136.075065,8.5 148.75,8.5 C161.424935,8.5 172.899935,13.6375325 181.206201,21.9437987 C189.512468,30.250065 194.65,41.725065 194.65,54.3998658 L194.65,54.3998658 L194.648698,136.87728 C205.572536,135.740842 216.788997,135.15 228.225,135.15 C239.661207,135.15 250.877864,135.740863 261.801887,136.877341 L261.801887,136.877341 L261.8,54.4 C261.8,41.725065 266.937532,30.250065 275.243799,21.9437987 C283.550065,13.6375325 295.025065,8.5 307.7,8.5 Z" id="Combined-Shape" stroke="#EC6998" stroke-width="17" fill="#FACFD8"></path>
                    <ellipse id="Oval" fill="#EC6998" cx="408.85" cy="275.4" rx="46.75" ry="31.45"></ellipse>
                    <ellipse id="Oval" fill="#EC6998" cx="46.75" cy="275.4" rx="46.75" ry="31.45"></ellipse>
                </g>
                <g id="mouth" transform="translate(79.900000, 230.350000)">
                    <mask id="mask-2" fill="white">
                        <use xlink:href="#path-1"></use>
                    </mask>
                    <use id="Oval" fill="#000000" xlink:href="#path-1"></use>
                    <ellipse id="Oval" fill="#FFFFFF" mask="url(#mask-2)" cx="149.175" cy="0.425" rx="9.775" ry="17.425"></ellipse>
                    <path d="M146.896205,205.7 C212.044442,205.7 281.70914,182.495 295.264412,160.1825 C308.819685,137.87 212.492901,116.45 147.344665,116.45 C82.1964278,116.45 -13.2334365,137.87 0.361117939,160.1825 C13.9556724,182.495 81.7479682,205.7 146.896205,205.7 Z" id="Oval" fill="#EC6998" mask="url(#mask-2)"></path>
                </g>
                <g id="eyes" transform="translate(121.769250, 193.831226)" fill="#000000">
                    <path d="M27.8205404,26.7367777 C44.2510117,26.7367777 59.5,28.1138624 59.5,22.95 C59.5,17.7861376 46.1804713,13.6 29.75,13.6 C13.3195287,13.6 0,17.7861376 0,22.95 C0,28.1138624 11.3900691,26.7367777 27.8205404,26.7367777 Z" id="Oval" transform="translate(29.750000, 20.251695) rotate(-27.000000) translate(-29.750000, -20.251695) "></path>
                    <path d="M180.37854,26.7367777 C196.809012,26.7367777 212.058,28.1138624 212.058,22.95 C212.058,17.7861376 198.738471,13.6 182.308,13.6 C165.877529,13.6 152.558,17.7861376 152.558,22.95 C152.558,28.1138624 163.948069,26.7367777 180.37854,26.7367777 Z" id="Oval" transform="translate(182.308000, 20.251695) scale(-1, 1) rotate(-27.000000) translate(-182.308000, -20.251695) "></path>
                </g>
            </g>
        </g>
        <g id="bitcoin-btc-logo" filter="url(#filter-3)" transform="translate(69.000000, 271.000000)" fill-rule="nonzero">
            <path d="M451.60785,284.718261 C420.988621,407.536959 296.593242,482.281988 173.759977,451.654915 C50.9782591,421.035686 -23.7667699,296.632463 6.86590595,173.823851 C37.4716875,50.9917063 161.867067,-23.7589257 284.662231,6.86030296 C407.486532,37.4795317 482.227078,161.896202 451.604488,284.720503 L451.606729,284.718261 L451.60785,284.718261 Z" id="Path" fill="#F7931A"></path>
            <path d="M330.326613,196.595529 C334.88969,166.086119 311.661928,149.686163 279.899689,138.745761 L290.20359,97.418095 L265.046158,91.149468 L255.015682,131.389033 C248.401911,129.739513 241.609964,128.185243 234.85948,126.64442 L244.962794,86.1392729 L219.82105,79.8706458 L209.511546,121.184865 C204.038544,119.93876 198.663033,118.707222 193.447769,117.409569 L193.476904,117.27958 L158.784301,108.616234 L152.092087,135.485941 C152.092087,135.485941 170.756773,139.764385 170.363443,140.027726 C180.550803,142.570363 182.393066,149.314124 182.087143,154.659378 L170.349996,201.741317 C171.051491,201.919492 171.961416,202.17723 172.965473,202.580645 C172.126144,202.372214 171.233027,202.144732 170.306293,201.922854 L153.854789,267.87791 C152.609804,270.973002 149.449717,275.617882 142.327194,273.854061 C142.579328,274.219376 124.042391,269.290984 124.042391,269.290984 L111.552202,298.08812 L144.290482,306.249438 C150.380934,307.776813 156.34924,309.374786 162.226779,310.877509 L151.81642,352.679188 L176.944717,358.947815 L187.254222,317.589893 C194.119007,319.453448 200.780964,321.172446 207.302846,322.792831 L197.02808,363.955769 L222.186633,370.224396 L232.595871,328.501159 C275.494617,336.619893 307.751039,333.346626 321.328209,294.544788 C332.26861,263.304748 320.783598,245.285527 298.214748,233.534933 C314.652804,229.743949 327.034295,218.932416 330.335578,196.598891 L330.327734,196.593288 L330.326613,196.595529 Z M272.847763,277.195685 C265.073052,308.435725 212.474408,291.548308 195.421142,287.313567 L209.235879,231.933598 C226.288023,236.190751 280.973222,244.615409 272.848884,277.195685 L272.847763,277.195685 Z M280.628077,196.142808 C273.535811,224.55894 229.757396,210.122272 215.556053,206.582302 L228.080981,156.355964 C242.282323,159.895934 288.016182,166.502982 280.630319,196.142808 L280.628077,196.142808 Z" id="Shape" fill="#FFFFFF"></path>
        </g>
    </g>
</svg>